<svg width="36" height="42" viewBox="0 0 36 42" fill="none" xmlns="http://www.w3.org/2000/svg">
<path d="M1 7.35532C1.87912 3.80482 4.34066 -2.05349 7.15385 2.9172C9.96703 7.88789 15.359 29.8419 17.7033 40.1976C18.2894 41.3811 19.989 42.1504 22.0989 35.7595C24.2088 29.3686 25.3223 27.7709 25.6154 27.7709C26.2015 27.7709 27.5495 27.9484 28.2527 28.6585C28.956 29.3686 30.8901 24.8121 31.7692 22.4451C32.0623 20.6699 33 16.9419 34.4066 16.2318C36.1648 15.3441 40.5604 12.6813 42.3187 8.24314C43.7253 4.69265 45.8352 10.3143 46.7143 13.5689C47.0073 15.0483 48.2967 15.3441 51.1099 4.69265C51.696 3.21328 53.2198 0.964634 54.6264 3.80503C56.3846 7.35552 58.1429 12.6813 60.7802 11.7936C62.8901 11.0835 64.5897 5.58027 65.1758 2.9174C65.7619 1.43803 67.2857 -0.100514 68.6923 5.58027C70.4506 12.6813 73.967 21.5575 81 21.5575" stroke="#0FDF8F" stroke-width="2" stroke-linecap="round"/>
</svg>
