<svg width="14" height="14" viewBox="0 0 14 14" fill="none" xmlns="http://www.w3.org/2000/svg">
<path d="M6.5 0.5V3H7.5V0.5H6.5ZM2.75 2.04688L2.04688 2.75L3.8125 4.53125L4.53125 3.8125L2.75 2.04688ZM11.25 2.04688L9.46875 3.8125L10.1875 4.53125L11.9531 2.75L11.25 2.04688ZM7 3.5C5.07227 3.5 3.5 5.07227 3.5 7C3.5 8.92773 5.07227 10.5 7 10.5C8.92773 10.5 10.5 8.92773 10.5 7C10.5 5.07227 8.92773 3.5 7 3.5ZM7 4.5C8.38672 4.5 9.5 5.61328 9.5 7C9.5 8.38672 8.38672 9.5 7 9.5C5.61328 9.5 4.5 8.38672 4.5 7C4.5 5.61328 5.61328 4.5 7 4.5ZM0.5 6.5V7.5H3V6.5H0.5ZM11 6.5V7.5H13.5V6.5H11ZM3.8125 9.46875L2.04688 11.25L2.75 11.9531L4.53125 10.1875L3.8125 9.46875ZM10.1875 9.46875L9.46875 10.1875L11.25 11.9531L11.9531 11.25L10.1875 9.46875ZM6.5 11V13.5H7.5V11H6.5Z" fill="#F0A719"/>
</svg>
